#tb 0: 1/60
#media_type 0: video
#codec_id 0: rawvideo
#dimensions 0: 720x480
#sar 0: 8/9
0,        598,        598,        1,   518400, 0xc3c0f1cf
0,        603,        603,        1,   518400, 0x21a5df80
0,        607,        607,        1,   518400, 0x5b8e115b
0,        611,        611,        1,   518400, 0x7ce09331
0,        615,        615,        1,   518400, 0x30ff1f1f
0,        619,        619,        1,   518400, 0x64f091ed
0,        623,        623,        1,   518400, 0xb3c117a2
0,        627,        627,        1,   518400, 0x0fbe146d
0,        631,        631,        1,   518400, 0x75209293
0,        635,        635,        1,   518400, 0xa3030208
0,        639,        639,        1,   518400, 0x8cea6941
0,        643,        643,        1,   518400, 0xf41d1dbd
0,        647,        647,        1,   518400, 0xcc9fe95e
0,        651,        651,        1,   518400, 0xa2a60dbc
0,        655,        655,        1,   518400, 0x3f5eecdb
